<mxfile host="app.diagrams.net" modified="2022-05-04T14:32:58.084Z" agent="5.0 (Macintosh; Intel Mac OS X 10_15_7) AppleWebKit/537.36 (KHTML, like Gecko) Chrome/100.0.4896.127 Safari/537.36" etag="juGf-BtCs3MFdWzXQwAR" version="17.4.5" type="github">
  <diagram id="NkqMn08no8hSKEZJivaE" name="Page-1">
    <mxGraphModel dx="946" dy="613" grid="1" gridSize="10" guides="1" tooltips="1" connect="1" arrows="1" fold="1" page="1" pageScale="1" pageWidth="827" pageHeight="1169" math="0" shadow="0">
      <root>
        <mxCell id="0" />
        <mxCell id="1" parent="0" />
        <mxCell id="mUzrur5JFKt8VHuN9QWR-8" value="" style="rounded=0;whiteSpace=wrap;html=1;dashed=1;fillColor=none;" vertex="1" parent="1">
          <mxGeometry x="180" y="160" width="370" height="300" as="geometry" />
        </mxCell>
        <mxCell id="mUzrur5JFKt8VHuN9QWR-1" value="（1）基础数据结构" style="rounded=0;whiteSpace=wrap;html=1;" vertex="1" parent="1">
          <mxGeometry x="190" y="410" width="350" height="40" as="geometry" />
        </mxCell>
        <mxCell id="mUzrur5JFKt8VHuN9QWR-2" value="（2）张量（Tensor）体系" style="rounded=0;whiteSpace=wrap;html=1;" vertex="1" parent="1">
          <mxGeometry x="190" y="360" width="350" height="40" as="geometry" />
        </mxCell>
        <mxCell id="mUzrur5JFKt8VHuN9QWR-3" value="（3）算子内核、形式注册管理体系" style="rounded=0;whiteSpace=wrap;html=1;fontStyle=1;fillColor=#dae8fc;strokeColor=#6c8ebf;" vertex="1" parent="1">
          <mxGeometry x="340" y="310" width="200" height="40" as="geometry" />
        </mxCell>
        <mxCell id="mUzrur5JFKt8VHuN9QWR-4" value="（4）算子维度类型推导管理体系" style="rounded=0;whiteSpace=wrap;html=1;" vertex="1" parent="1">
          <mxGeometry x="190" y="310" width="140" height="40" as="geometry" />
        </mxCell>
        <mxCell id="mUzrur5JFKt8VHuN9QWR-5" value="（5）算子定义描述及生成体系" style="rounded=0;whiteSpace=wrap;html=1;" vertex="1" parent="1">
          <mxGeometry x="190" y="260" width="350" height="40" as="geometry" />
        </mxCell>
        <mxCell id="mUzrur5JFKt8VHuN9QWR-6" value="（6）算子自动化编译及依赖分析体系" style="rounded=0;whiteSpace=wrap;html=1;" vertex="1" parent="1">
          <mxGeometry x="190" y="210" width="140" height="40" as="geometry" />
        </mxCell>
        <mxCell id="mUzrur5JFKt8VHuN9QWR-7" value="（7）算子适配框架执行调度体系" style="rounded=0;whiteSpace=wrap;html=1;" vertex="1" parent="1">
          <mxGeometry x="340" y="210" width="200" height="40" as="geometry" />
        </mxCell>
        <mxCell id="mUzrur5JFKt8VHuN9QWR-9" value="高复用性能的函数式算子体系" style="text;html=1;strokeColor=none;fillColor=none;align=center;verticalAlign=middle;whiteSpace=wrap;rounded=0;dashed=1;fontSize=14;fontStyle=1" vertex="1" parent="1">
          <mxGeometry x="190" y="170" width="190" height="30" as="geometry" />
        </mxCell>
        <mxCell id="mUzrur5JFKt8VHuN9QWR-10" value="&lt;b&gt;&lt;font style=&quot;font-size: 14px&quot;&gt;上层框架执行体系&lt;/font&gt;&lt;/b&gt;" style="rounded=0;whiteSpace=wrap;html=1;fillColor=none;dashed=1;" vertex="1" parent="1">
          <mxGeometry x="180" y="100" width="370" height="50" as="geometry" />
        </mxCell>
      </root>
    </mxGraphModel>
  </diagram>
</mxfile>
